<mxfile host="app.diagrams.net" modified="2023-08-25T16:41:27.363Z" agent="Mozilla/5.0 (X11; Linux x86_64; rv:103.0) Gecko/20100101 Firefox/103.0" etag="ZxfXuK2IQ8kh2PKHX13J" version="21.6.9" type="github">
  <diagram name="PÃ¡gina-1" id="RcwDmj_w6ej4xBRqMXIV">
    <mxGraphModel dx="1434" dy="673" grid="1" gridSize="10" guides="1" tooltips="1" connect="1" arrows="1" fold="1" page="1" pageScale="1" pageWidth="827" pageHeight="1169" math="0" shadow="0">
      <root>
        <mxCell id="0" />
        <mxCell id="1" parent="0" />
        <mxCell id="6V4xdIXUaPTTGQ4X1hB9-2" style="edgeStyle=orthogonalEdgeStyle;rounded=0;orthogonalLoop=1;jettySize=auto;html=1;exitX=1;exitY=0.5;exitDx=0;exitDy=0;" edge="1" parent="1" source="6V4xdIXUaPTTGQ4X1hB9-1" target="6V4xdIXUaPTTGQ4X1hB9-3">
          <mxGeometry relative="1" as="geometry">
            <mxPoint x="200" y="130" as="targetPoint" />
          </mxGeometry>
        </mxCell>
        <mxCell id="6V4xdIXUaPTTGQ4X1hB9-1" value="ESCOLA" style="swimlane;whiteSpace=wrap;html=1;" vertex="1" parent="1">
          <mxGeometry x="10" y="60" width="140" height="140" as="geometry" />
        </mxCell>
        <mxCell id="6V4xdIXUaPTTGQ4X1hB9-4" style="edgeStyle=orthogonalEdgeStyle;rounded=0;orthogonalLoop=1;jettySize=auto;html=1;exitX=1;exitY=0.5;exitDx=0;exitDy=0;" edge="1" parent="1" source="6V4xdIXUaPTTGQ4X1hB9-3">
          <mxGeometry relative="1" as="geometry">
            <mxPoint x="270" y="130" as="targetPoint" />
          </mxGeometry>
        </mxCell>
        <mxCell id="6V4xdIXUaPTTGQ4X1hB9-3" value="TER" style="rhombus;whiteSpace=wrap;html=1;" vertex="1" parent="1">
          <mxGeometry x="180" y="110" width="60" height="40" as="geometry" />
        </mxCell>
        <mxCell id="6V4xdIXUaPTTGQ4X1hB9-8" style="edgeStyle=orthogonalEdgeStyle;rounded=0;orthogonalLoop=1;jettySize=auto;html=1;exitX=1;exitY=0.5;exitDx=0;exitDy=0;" edge="1" parent="1" source="6V4xdIXUaPTTGQ4X1hB9-5" target="6V4xdIXUaPTTGQ4X1hB9-9">
          <mxGeometry relative="1" as="geometry">
            <mxPoint x="460" y="130" as="targetPoint" />
          </mxGeometry>
        </mxCell>
        <mxCell id="6V4xdIXUaPTTGQ4X1hB9-23" style="edgeStyle=orthogonalEdgeStyle;rounded=0;orthogonalLoop=1;jettySize=auto;html=1;exitX=0.5;exitY=1;exitDx=0;exitDy=0;" edge="1" parent="1" source="6V4xdIXUaPTTGQ4X1hB9-5">
          <mxGeometry relative="1" as="geometry">
            <mxPoint x="340" y="250" as="targetPoint" />
          </mxGeometry>
        </mxCell>
        <mxCell id="6V4xdIXUaPTTGQ4X1hB9-5" value="TURMAS" style="swimlane;whiteSpace=wrap;html=1;" vertex="1" parent="1">
          <mxGeometry x="270" y="55" width="140" height="150" as="geometry" />
        </mxCell>
        <mxCell id="6V4xdIXUaPTTGQ4X1hB9-6" value="1" style="text;html=1;align=center;verticalAlign=middle;resizable=0;points=[];autosize=1;strokeColor=none;fillColor=none;" vertex="1" parent="1">
          <mxGeometry x="145" y="98" width="30" height="30" as="geometry" />
        </mxCell>
        <mxCell id="6V4xdIXUaPTTGQ4X1hB9-7" value="N" style="text;html=1;align=center;verticalAlign=middle;resizable=0;points=[];autosize=1;strokeColor=none;fillColor=none;" vertex="1" parent="1">
          <mxGeometry x="235" y="98" width="30" height="30" as="geometry" />
        </mxCell>
        <mxCell id="6V4xdIXUaPTTGQ4X1hB9-10" style="edgeStyle=orthogonalEdgeStyle;rounded=0;orthogonalLoop=1;jettySize=auto;html=1;exitX=1;exitY=0.5;exitDx=0;exitDy=0;" edge="1" parent="1" source="6V4xdIXUaPTTGQ4X1hB9-9">
          <mxGeometry relative="1" as="geometry">
            <mxPoint x="540" y="130" as="targetPoint" />
          </mxGeometry>
        </mxCell>
        <mxCell id="6V4xdIXUaPTTGQ4X1hB9-9" value="TER" style="rhombus;whiteSpace=wrap;html=1;" vertex="1" parent="1">
          <mxGeometry x="440" y="110" width="60" height="40" as="geometry" />
        </mxCell>
        <mxCell id="6V4xdIXUaPTTGQ4X1hB9-43" style="edgeStyle=orthogonalEdgeStyle;rounded=0;orthogonalLoop=1;jettySize=auto;html=1;exitX=0.5;exitY=1;exitDx=0;exitDy=0;entryX=0.5;entryY=0;entryDx=0;entryDy=0;" edge="1" parent="1" source="6V4xdIXUaPTTGQ4X1hB9-11" target="6V4xdIXUaPTTGQ4X1hB9-15">
          <mxGeometry relative="1" as="geometry" />
        </mxCell>
        <mxCell id="6V4xdIXUaPTTGQ4X1hB9-11" value="PROFESSORES" style="swimlane;whiteSpace=wrap;html=1;" vertex="1" parent="1">
          <mxGeometry x="540" y="55" width="150" height="150" as="geometry" />
        </mxCell>
        <mxCell id="6V4xdIXUaPTTGQ4X1hB9-12" value="N" style="text;html=1;align=center;verticalAlign=middle;resizable=0;points=[];autosize=1;strokeColor=none;fillColor=none;" vertex="1" parent="1">
          <mxGeometry x="415" y="98" width="30" height="30" as="geometry" />
        </mxCell>
        <mxCell id="6V4xdIXUaPTTGQ4X1hB9-13" value="N" style="text;html=1;align=center;verticalAlign=middle;resizable=0;points=[];autosize=1;strokeColor=none;fillColor=none;" vertex="1" parent="1">
          <mxGeometry x="505" y="98" width="30" height="30" as="geometry" />
        </mxCell>
        <mxCell id="6V4xdIXUaPTTGQ4X1hB9-16" style="edgeStyle=orthogonalEdgeStyle;rounded=0;orthogonalLoop=1;jettySize=auto;html=1;exitX=0.5;exitY=1;exitDx=0;exitDy=0;" edge="1" parent="1" source="6V4xdIXUaPTTGQ4X1hB9-15">
          <mxGeometry relative="1" as="geometry">
            <mxPoint x="615" y="370" as="targetPoint" />
          </mxGeometry>
        </mxCell>
        <mxCell id="6V4xdIXUaPTTGQ4X1hB9-15" value="ADMINISTRAR" style="rhombus;whiteSpace=wrap;html=1;" vertex="1" parent="1">
          <mxGeometry x="580" y="280" width="70" height="40" as="geometry" />
        </mxCell>
        <mxCell id="6V4xdIXUaPTTGQ4X1hB9-36" style="edgeStyle=orthogonalEdgeStyle;rounded=0;orthogonalLoop=1;jettySize=auto;html=1;exitX=0.5;exitY=1;exitDx=0;exitDy=0;" edge="1" parent="1">
          <mxGeometry relative="1" as="geometry">
            <mxPoint x="340" y="600" as="targetPoint" />
            <mxPoint x="615" y="399" as="sourcePoint" />
            <Array as="points">
              <mxPoint x="615" y="499" />
              <mxPoint x="616" y="499" />
            </Array>
          </mxGeometry>
        </mxCell>
        <mxCell id="6V4xdIXUaPTTGQ4X1hB9-17" value="AULAS" style="rounded=0;whiteSpace=wrap;html=1;" vertex="1" parent="1">
          <mxGeometry x="555" y="370" width="120" height="30" as="geometry" />
        </mxCell>
        <mxCell id="6V4xdIXUaPTTGQ4X1hB9-48" style="edgeStyle=orthogonalEdgeStyle;rounded=0;orthogonalLoop=1;jettySize=auto;html=1;exitX=0.5;exitY=1;exitDx=0;exitDy=0;" edge="1" parent="1" source="6V4xdIXUaPTTGQ4X1hB9-19">
          <mxGeometry relative="1" as="geometry">
            <mxPoint x="340" y="600" as="targetPoint" />
          </mxGeometry>
        </mxCell>
        <mxCell id="6V4xdIXUaPTTGQ4X1hB9-19" value="SALA" style="swimlane;whiteSpace=wrap;html=1;" vertex="1" parent="1">
          <mxGeometry x="270" y="310" width="140" height="150" as="geometry" />
        </mxCell>
        <mxCell id="6V4xdIXUaPTTGQ4X1hB9-46" style="edgeStyle=orthogonalEdgeStyle;rounded=0;orthogonalLoop=1;jettySize=auto;html=1;exitX=0.5;exitY=1;exitDx=0;exitDy=0;entryX=0.5;entryY=0;entryDx=0;entryDy=0;" edge="1" parent="1" source="6V4xdIXUaPTTGQ4X1hB9-24" target="6V4xdIXUaPTTGQ4X1hB9-19">
          <mxGeometry relative="1" as="geometry" />
        </mxCell>
        <mxCell id="6V4xdIXUaPTTGQ4X1hB9-24" value="TER" style="rhombus;whiteSpace=wrap;html=1;" vertex="1" parent="1">
          <mxGeometry x="300" y="250" width="80" height="30" as="geometry" />
        </mxCell>
      </root>
    </mxGraphModel>
  </diagram>
</mxfile>
